<?xml version="1.0" standalone="no"?>
<!DOCTYPE svg PUBLIC "-//W3C//DTD SVG 20010904//EN"
 "http://www.w3.org/TR/2001/REC-SVG-20010904/DTD/svg10.dtd">
<svg version="1.0" xmlns="http://www.w3.org/2000/svg"
 width="512.000000pt" height="512.000000pt" viewBox="0 0 512.000000 512.000000"
 preserveAspectRatio="xMidYMid meet">
<metadata>
Created by potrace 1.11, written by Peter Selinger 2001-2013
</metadata>
<g transform="translate(0.000000,512.000000) scale(0.100000,-0.100000)"
fill="#000000" stroke="none">
<path d="M2236 5104 c-347 -46 -718 -177 -1016 -358 -334 -204 -662 -535 -860
-868 -166 -279 -283 -604 -335 -928 -26 -160 -31 -521 -11 -690 44 -362 172
-731 360 -1040 204 -334 535 -662 868 -860 279 -166 604 -283 928 -335 160
-26 521 -31 690 -11 362 44 731 172 1040 360 334 204 662 535 860 868 166 279
283 604 335 928 26 160 31 521 11 690 -44 362 -172 731 -360 1040 -204 334
-535 662 -868 860 -279 166 -603 283 -928 335 -146 24 -565 29 -714 9z m1009
-1449 l475 -395 0 -445 c0 -245 -2 -445 -5 -445 -3 0 -182 147 -397 328 -214
180 -394 329 -399 330 -5 2 -9 -303 -9 -726 0 -446 -4 -750 -10 -783 -40 -215
-240 -378 -546 -445 -107 -23 -329 -23 -439 0 -289 63 -479 228 -514 447 -41
252 150 485 464 571 69 18 107 22 270 22 166 0 200 -3 270 -22 95 -26 229 -89
295 -137 26 -19 50 -35 54 -35 3 0 6 479 6 1065 0 586 2 1065 5 1065 3 0 219
-178 480 -395z"/>
</g>
</svg>
